<svg t="1698492375805" class="icon" viewBox="0 0 1024 1024" version="1.1" xmlns="http://www.w3.org/2000/svg" p-id="4075" width="200" height="200"><path d="M150.588235 542.117647a30.117647 30.117647 0 1 1 60.235294 0 271.058824 271.058824 0 0 0 271.058824 271.058824 30.117647 30.117647 0 1 1 0 60.235294C298.917647 873.411765 150.588235 725.082353 150.588235 542.117647z m722.82353-60.235294a30.117647 30.117647 0 1 1-60.235294 0 271.058824 271.058824 0 0 0-271.058824-271.058824 30.117647 30.117647 0 1 1 0-60.235294c182.964706 0 331.294118 148.329412 331.294118 331.294118zM512 1024C229.225412 1024 0 794.774588 0 512S229.225412 0 512 0s512 229.225412 512 512-229.225412 512-512 512z m0-60.235294c249.494588 0 451.764706-202.270118 451.764706-451.764706 0-249.494588-202.270118-451.764706-451.764706-451.764706C262.505412 60.235294 60.235294 262.505412 60.235294 512c0 249.494588 202.270118 451.764706 451.764706 451.764706z m0-331.294118a120.470588 120.470588 0 1 1 0-240.941176 120.470588 120.470588 0 0 1 0 240.941176z m0-60.235294a60.235294 60.235294 0 1 0 0-120.470588 60.235294 60.235294 0 0 0 0 120.470588z" fill="#7F7F7F" p-id="4076"></path></svg>