<svg t="1698492510590" class="icon" viewBox="0 0 1024 1024" version="1.1" xmlns="http://www.w3.org/2000/svg" p-id="13382" width="200" height="200"><path d="M589.888 141.568C586.88 142.72 584.512 145.28 584 148.416 583.296 152.896 586.624 156.864 591.36 157.248c28.864 2.368 52.608 19.456 62.08 44.608 1.536 4.16 6.528 6.144 11.072 4.416 4.48-1.664 6.912-6.464 5.376-10.624-11.584-30.848-40.64-51.776-76.032-54.656C592.512 140.928 591.104 141.12 589.888 141.568zM731.392 399.744 407.04 172.608 383.552 206.144l324.352 227.136L731.392 399.744zM577.92 104.96c90.496 0 163.904 73.344 163.904 163.904 0 27.136-7.232 52.352-18.944 74.944l33.6 23.552c16.192-29.312 26.24-62.592 26.24-98.496C782.72 155.712 691.072 64 577.92 64c-61.504 0-116.096 27.712-153.6 70.656l33.472 23.488C487.744 125.632 530.24 104.96 577.92 104.96zM855.488 705.6c-14.784-30.272-36.928-54.656-65.536-69.76s-63.04-20.864-102.336-14.016c-64.896 11.52-144.064 58.496-231.936 157.376-87.424 98.496-162.24 131.008-212.224 126.72-14.656-1.344-26.688-5.888-35.584-12.736-8.448-6.656-14.336-15.36-17.28-25.6-7.232-24.768 1.984-58.24 32.704-90.368l-38.4-37.12c-45.184 47.36-57.664 100.352-45.44 142.528 6.144 21.12 18.432 39.36 35.84 52.992 16.896 13.12 38.528 21.632 63.744 23.872 64.256 5.504 156.032-31.36 256.512-144.512 78.976-89.024 147.2-130.752 201.28-140.224 27.008-4.736 49.92-1.28 68.288 8.512 18.304 9.728 32.768 25.728 42.56 45.888 17.472 35.776 20.736 84.096 6.72 134.4l51.328 14.4C883.328 814.848 878.592 752.896 855.488 705.6zM286.784 758.4l257.728-288.128C555.456 472.064 566.528 473.6 577.92 473.6c31.36 0 60.736-7.616 87.296-20.224L624.768 425.088C609.792 429.504 594.304 432.64 577.92 432.64c-19.776 0-38.464-3.968-56-10.368L443.456 360.96C427.2 337.088 416.832 308.864 415.04 278.208L374.976 250.176C374.464 256.448 373.12 262.464 373.12 268.8c0 32 8 61.888 21.12 88.896L179.2 674.368 286.784 758.4zM416.896 392.192l86.08 67.264-223.296 241.408-43.008-33.6L416.896 392.192zM532.032 155.776C527.936 158.272 526.592 163.328 528.96 167.04c2.496 3.776 7.744 4.736 11.968 2.24 4.48-2.688 9.28-4.992 14.272-6.848 4.544-1.728 6.976-6.464 5.44-10.624S554.048 145.6 549.504 147.328C543.424 149.632 537.536 152.448 532.032 155.776z" fill="#272636" p-id="13383"></path></svg>