<svg t="1696683874605" class="icon" viewBox="0 0 1024 1024" version="1.1" xmlns="http://www.w3.org/2000/svg" p-id="4287" width="200" height="200"><path d="M540.117333 630.016a42.666667 42.666667 0 0 1 4.010667 4.010667l204.629333 233.856A42.666667 42.666667 0 0 1 716.629333 938.666667H307.370667a42.666667 42.666667 0 0 1-32.128-70.784l204.629333-233.813334a42.666667 42.666667 0 0 1 60.245333-4.053333zM512 725.333333l-128 128h256l-128-128z m341.333333-640a128 128 0 0 1 128 128v426.666667a128 128 0 0 1-128 128h-42.666666a42.666667 42.666667 0 0 1 0-85.333333h42.666666a42.666667 42.666667 0 0 0 42.368-37.674667L896 640V213.333333a42.666667 42.666667 0 0 0-42.666667-42.666666H170.666667a42.666667 42.666667 0 0 0-42.368 37.674666L128 213.333333v426.666667a42.666667 42.666667 0 0 0 37.674667 42.368L170.666667 682.666667h42.666666a42.666667 42.666667 0 0 1 0 85.333333H170.666667a128 128 0 0 1-128-128V213.333333a128 128 0 0 1 128-128h682.666666z" fill="#666666" p-id="4288"></path></svg>