<svg width="6" height="10" viewBox="0 0 6 10" fill="none" xmlns="http://www.w3.org/2000/svg">
<path d="M0.193359 5.13623C0.193359 5.42627 0.29541 5.6626 0.54248 5.89893L4.32373 9.61035C4.50098 9.78223 4.71045 9.86816 4.96289 9.86816C5.47314 9.86816 5.89209 9.45459 5.89209 8.94971C5.89209 8.69189 5.7793 8.46094 5.59131 8.26758L2.35254 5.13086L5.59131 2.00488C5.78467 1.81152 5.89209 1.5752 5.89209 1.32275C5.89209 0.823242 5.47314 0.409668 4.96289 0.409668C4.71045 0.409668 4.50098 0.490234 4.32373 0.66748L0.54248 4.36816C0.300781 4.60986 0.19873 4.84082 0.193359 5.13623Z" fill="#464646"/>
</svg>
