<svg t="1697793757207" class="icon" viewBox="0 0 1024 1024" version="1.1" xmlns="http://www.w3.org/2000/svg" p-id="1454" width="200" height="200"><path d="M316.330667 426.666667l40.789333 40.746666a42.666667 42.666667 0 0 1-60.373333 60.373334L183.168 414.165333C156.288 387.285333 175.317333 341.333333 213.333333 341.333333h238.336L554.666667 238.336V170.666667a42.666667 42.666667 0 0 1 12.501333-30.165334l42.666667-42.666666a42.666667 42.666667 0 0 1 60.330666 0l256 256a42.666667 42.666667 0 0 1 0 60.330666l-42.666666 42.666667A42.666667 42.666667 0 0 1 853.333333 469.333333h-67.669333L682.666667 572.330667V810.666667c0 37.973333-45.952 57.045333-72.832 30.165333L426.666667 657.664l-225.834667 225.834667a42.666667 42.666667 0 1 1-60.330667-60.330667l256-256a42.666667 42.666667 0 0 1 60.330667 0L597.333333 707.669333V554.666667a42.666667 42.666667 0 0 1 12.501334-30.165334l128-128A42.666667 42.666667 0 0 1 768 384h67.669333l-225.834666-225.834667h60.330666l-42.666666 42.666667L640 170.666667v85.333333a42.666667 42.666667 0 0 1-12.501333 30.165333l-128 128A42.666667 42.666667 0 0 1 469.333333 426.666667H316.330667z" p-id="1455"></path></svg>