<svg t="1697359854112" class="icon" viewBox="0 0 1024 1024" version="1.1" xmlns="http://www.w3.org/2000/svg" p-id="4138" width="200" height="200"><path d="M455.850667 796.785778h-46.762667a284.785778 284.785778 0 0 1-238.193778-280.689778c0-47.274667 12.117333-91.534222 32.654222-130.787556l34.872889 48.355556a51.768889 51.768889 0 0 0 91.818667-16.440889l66.104889-237.738667a51.768889 51.768889 0 0 0-49.891556-65.649777l-237.454222 0.341333A51.768889 51.768889 0 0 0 67.128889 196.266667l64.170667 88.974222a396.117333 396.117333 0 0 0-74.069334 230.912 398.222222 398.222222 0 0 0 336.668445 393.500444c5.176889 0.796444 10.24 0.568889 15.189333-0.056889v0.682667h46.762667A56.149333 56.149333 0 0 0 512 854.129778v-1.137778a56.149333 56.149333 0 0 0-56.149333-56.149333zM956.871111 827.790222l-64.227555-88.974222a395.719111 395.719111 0 0 0 74.069333-230.912 398.279111 398.279111 0 0 0-336.668445-393.557333 54.328889 54.328889 0 0 0-15.189333 0.056889v-0.739556h-46.762667A56.092444 56.092444 0 0 0 512 169.813333v1.137778c0 31.061333 25.144889 56.206222 56.092444 56.206222h46.762667a284.785778 284.785778 0 0 1 238.193778 280.689778c0 47.274667-12.117333 91.534222-32.597333 130.787556l-34.929778-48.355556a51.712 51.712 0 0 0-91.761778 16.440889l-66.161778 237.738667a51.768889 51.768889 0 0 0 49.948445 65.649777l237.454222-0.341333a51.768889 51.768889 0 0 0 41.870222-82.090667z" fill="" p-id="4139"></path></svg>