<svg width="7" height="10" viewBox="0 0 7 10" fill="none" xmlns="http://www.w3.org/2000/svg">
<path d="M6.34229 5.13623C6.33691 4.84082 6.23486 4.60986 5.99316 4.36816L2.21191 0.66748C2.03467 0.490234 1.83057 0.409668 1.57812 0.409668C1.06787 0.409668 0.648926 0.823242 0.648926 1.32275C0.648926 1.5752 0.750977 1.81152 0.949707 2.00488L4.18848 5.13086L0.949707 8.26758C0.756348 8.46094 0.648926 8.69189 0.648926 8.94971C0.648926 9.45459 1.06787 9.86816 1.57812 9.86816C1.8252 9.86816 2.03467 9.78223 2.21191 9.61035L5.99316 5.89893C6.24023 5.6626 6.34229 5.42627 6.34229 5.13623Z" fill="#464646"/>
</svg>
