<svg t="1696494069406" class="icon" viewBox="0 0 1024 1024" version="1.1" xmlns="http://www.w3.org/2000/svg" p-id="16848" width="200" height="200"><path d="M213.333333 426.666667c-25.6 0-42.666667-17.066667-42.666667-42.666667 0-166.4 132.266667-298.666667 298.666667-298.666667 128 0 243.2 85.333333 285.866667 209.066667C759.466667 315.733333 750.933333 341.333333 725.333333 345.6c-21.333333 8.533333-46.933333-4.266667-55.466667-25.6C644.266667 230.4 563.2 170.666667 469.333333 170.666667 349.866667 170.666667 256 264.533333 256 384 256 409.6 238.933333 426.666667 213.333333 426.666667z" p-id="16849"></path><path d="M768 768c-25.6 0-42.666667-17.066667-42.666667-42.666667s17.066667-42.666667 42.666667-42.666667c93.866667 0 170.666667-76.8 170.666667-170.666667s-76.8-170.666667-170.666667-170.666667c-12.8 0-29.866667 0-42.666667 4.266667-21.333333 4.266667-46.933333-8.533333-51.2-29.866667s8.533333-46.933333 29.866667-51.2C725.333333 260.266667 746.666667 256 768 256c140.8 0 256 115.2 256 256S908.8 768 768 768z" p-id="16850"></path><path d="M341.333333 768 213.333333 768c-25.6 0-42.666667-17.066667-42.666667-42.666667s17.066667-42.666667 42.666667-42.666667l128 0c25.6 0 42.666667 17.066667 42.666667 42.666667S366.933333 768 341.333333 768z" p-id="16851"></path><path d="M768 768l-85.333333 0c-25.6 0-42.666667-17.066667-42.666667-42.666667s17.066667-42.666667 42.666667-42.666667l85.333333 0c25.6 0 42.666667 17.066667 42.666667 42.666667S793.6 768 768 768z" p-id="16852"></path><path d="M213.333333 768c-119.466667 0-213.333333-93.866667-213.333333-213.333333s93.866667-213.333333 213.333333-213.333333c25.6 0 42.666667 17.066667 42.666667 42.666667s-17.066667 42.666667-42.666667 42.666667c-72.533333 0-128 55.466667-128 128s55.466667 128 128 128c25.6 0 42.666667 17.066667 42.666667 42.666667S238.933333 768 213.333333 768z" p-id="16853"></path><path d="M512 938.666667c-25.6 0-42.666667-17.066667-42.666667-42.666667L469.333333 469.333333c0-25.6 17.066667-42.666667 42.666667-42.666667s42.666667 17.066667 42.666667 42.666667l0 426.666667C554.666667 921.6 537.6 938.666667 512 938.666667z" p-id="16854"></path><path d="M384 640c-12.8 0-21.333333-4.266667-29.866667-12.8-17.066667-17.066667-17.066667-42.666667 0-59.733333l128-128c17.066667-17.066667 42.666667-17.066667 59.733333 0s17.066667 42.666667 0 59.733333l-128 128C405.333333 635.733333 396.8 640 384 640z" p-id="16855"></path><path d="M640 640c-12.8 0-21.333333-4.266667-29.866667-12.8l-128-128c-17.066667-17.066667-17.066667-42.666667 0-59.733333s42.666667-17.066667 59.733333 0l128 128c17.066667 17.066667 17.066667 42.666667 0 59.733333C661.333333 635.733333 652.8 640 640 640z" p-id="16856"></path></svg>